<svg xmlns="http://www.w3.org/2000/svg" xmlns:xlink="http://www.w3.org/1999/xlink" width="73.857" height="18.879" viewBox="0 0 73.857 18.879">
  <defs>
    <clipPath id="clip-path">
      <rect id="Rectangle_252" data-name="Rectangle 252" width="53.917" height="10.056" fill="#808181"/>
    </clipPath>
  </defs>
  <g id="Logo_full" transform="translate(-0.041 -1.815)">
    <g id="Groupe_77" data-name="Groupe 77" transform="translate(19.981 6.226)" clip-path="url(#clip-path)">
      <path id="Tracé_637" data-name="Tracé 637" d="M29.141,17.771A4.03,4.03,0,0,1,28,17.129l.713-1.284a4.527,4.527,0,0,0,.856.5,3.357,3.357,0,0,0,1.141.285,1.815,1.815,0,0,0,1.141-.357.862.862,0,0,0,.428-.856,1.438,1.438,0,0,0-.214-.785,1.923,1.923,0,0,0-.571-.5,9.767,9.767,0,0,0-1-.571,3.663,3.663,0,0,1-1-.571,2.607,2.607,0,0,1-1.355-2.354A2.253,2.253,0,0,1,29,8.713,3.5,3.5,0,0,1,31.138,8a3.74,3.74,0,0,1,2.354.785L32.778,10a1.729,1.729,0,0,0-.713-.428,2.517,2.517,0,0,0-1-.214A1.719,1.719,0,0,0,30,9.64a.96.96,0,0,0-.357.856,1.2,1.2,0,0,0,.214.713,2.171,2.171,0,0,0,.571.571,9.768,9.768,0,0,0,1,.571c.428.214.713.428.927.5s.428.357.642.571a1.947,1.947,0,0,1,.642.856,2.382,2.382,0,0,1,.214,1.07,2.637,2.637,0,0,1-.428,1.5,2.45,2.45,0,0,1-1.141.927,4.449,4.449,0,0,1-3.138,0Z" transform="translate(-28 -8)" fill="#808181"/>
      <path id="Tracé_638" data-name="Tracé 638" d="M38.4,8.2h1.5v3.994h3.423V8.2h1.5v9.771h-1.5V13.478H39.9v4.564H38.4Z" transform="translate(-30.983 -8.057)" fill="#808181"/>
      <path id="Tracé_639" data-name="Tracé 639" d="M55.25,17.971l-2-3.709H51.826v3.709H50.4V8.2h2.211a4.744,4.744,0,0,1,2.781.713,2.543,2.543,0,0,1,1.07,2.282,3.388,3.388,0,0,1-.428,1.712,2.554,2.554,0,0,1-1.355,1.07l2.354,3.994Zm-2.5-4.85a2.308,2.308,0,0,0,1.783-.571,1.883,1.883,0,0,0,.5-1.355q0-1.712-2.354-1.712h-.927v3.637Z" transform="translate(-34.425 -8.057)" fill="#808181"/>
      <path id="Tracé_640" data-name="Tracé 640" d="M62,8.2h1.5v9.771H62Z" transform="translate(-37.752 -8.057)" fill="#808181"/>
      <path id="Tracé_641" data-name="Tracé 641" d="M70.821,9.484H66.542V8.2h6.633l-4.85,8.487h4.636v1.284H65.9Z" transform="translate(-38.87 -8.057)" fill="#808181"/>
      <path id="Tracé_642" data-name="Tracé 642" d="M81.621,9.484H77.342V8.2h6.633l-4.85,8.487h4.636v1.284H76.7Z" transform="translate(-41.968 -8.057)" fill="#808181"/>
      <path id="Tracé_643" data-name="Tracé 643" d="M88.871,8.2h1.5v8.487H93.15v1.355H88.8V8.2Z" transform="translate(-45.438 -8.057)" fill="#808181"/>
      <path id="Tracé_644" data-name="Tracé 644" d="M96.9,8.2h4.279V9.484H98.4v2.71h2.282v1.355H98.4v3.138h3.281v1.284H96.971V8.2Z" transform="translate(-47.761 -8.057)" fill="#808181"/>
    </g>
    <path id="Tracé_645" data-name="Tracé 645" d="M7.686,17.505a1.016,1.016,0,0,1-.7.9,1.026,1.026,0,0,1-1.1-.308,1.013,1.013,0,0,1,.292-1.552,1.026,1.026,0,0,1,1.265.237,1.014,1.014,0,0,1,.241.725Z" transform="translate(-1.607 -4.19)" fill="#808181"/>
    <path id="Tracé_646" data-name="Tracé 646" d="M16.489,1.815l-.178.037C8.155,3.486,5.218,7.88,4.6,8.966L4.6,9.025a.463.463,0,0,0-.062.189.538.538,0,0,0,.024.2l-.005.054L5,10.878l0,.043A.582.582,0,0,0,5.5,11.3l2.12.208a.6.6,0,0,0,.393-.108l.078-.074,1.2-1.115.048-.044a.593.593,0,0,0,.175-.341l0-.043.044-.946c.461-2.584,4.507-5.093,6.97-6.378l.128-.085a.307.307,0,0,0,.108-.212.323.323,0,0,0-.071-.23.327.327,0,0,0-.211-.118Z" transform="translate(-1.289 0)" fill="#808181"/>
    <path id="Tracé_647" data-name="Tracé 647" d="M13.248,11.746a1.016,1.016,0,0,1,.719-.873,1.026,1.026,0,0,1,1.087.328,1.013,1.013,0,0,1-.306,1.541,1.026,1.026,0,0,1-1.272-.252,1.013,1.013,0,0,1-.228-.744Z" transform="translate(-3.787 -2.586)" fill="#808181"/>
    <path id="Tracé_648" data-name="Tracé 648" d="M.332,24.388l.184-.036c8.15-1.635,11.092-6.029,11.7-7.115a.29.29,0,0,0,.033-.056.538.538,0,0,0,.038-.387l.006-.059-.469-1.4,0-.043a.576.576,0,0,0-.509-.381L9.2,14.7a.546.546,0,0,0-.393.114l-.078.068-1.2,1.115-.054.049a.582.582,0,0,0-.175.336l0,.043-.038.941C6.79,19.953,2.744,22.457.281,23.742l-.127.069a.3.3,0,0,0-.108.207.314.314,0,0,0,.16.333.317.317,0,0,0,.126.037Z" transform="translate(0 -3.694)" fill="#808181"/>
  </g>
</svg>
