<svg xmlns="http://www.w3.org/2000/svg" width="250.74" height="348.516" viewBox="0 0 250.74 348.516">
  <g id="welcome_img" transform="translate(45.115 -82.245)">
    <path id="Tracé_443" data-name="Tracé 443" d="M922.351,375.191c0,94.755-43.022,169.506-96,171.569-69.092,2.691-159.391-66.2-96-171.569,48.845-81.2,42.982-171.569,96-171.569S922.351,280.436,922.351,375.191Z" transform="translate(-753.959 -121.377)" fill="#f2f2f2"/>
    <path id="Tracé_444" data-name="Tracé 444" d="M1074.594,453.154c-8.573,10.654-20.282,23.31-33.012,31.625a55.482,55.482,0,0,1-18.641,8.25c-33.018,6.9-48.642-10.326-53.7-34.534-.118-.565-.231-1.124-.328-1.683q-.323-1.694-.543-3.367c-3.017-22.175,5.556-41.682,36.261-48.093,9.5-1.985,20.513-.489,31.372,2.646a177.714,177.714,0,0,1,31.921,13.231,20.986,20.986,0,0,1,10.794,13.946c.016.07.032.14.043.21A20.977,20.977,0,0,1,1074.594,453.154Z" transform="translate(-873.641 -214.194)" fill="#f08901"/>
    <path id="Tracé_445" data-name="Tracé 445" d="M1015.2,460.113l-19.228,3.69,19.905,6.89,4.216,1.458-4.206-1.183-23.213-6.535-12.467,2.393,33.738,12.386-38.089-11.547-27.72,5.319,25.751,11.354-28.22-10.88-2.576.495-11.531,2.211v.005l-12.214,2.34-4.647.893-1.845.355-.925-4.432,1.877-.29,3.856-.6,14.091-2.178,10.795-1.673,33.389-5.169.253-.064.054.022,3.152-.49,21.562-21.32-19.212,20.879-.651.177,25.225-3.9,8.293-6.949,14.586-12.225-14.376,14.349-4.082,4.077,4.378-.8,37.778-6.857c.016.07.032.14.043.21l-31.017,6.3,19.039,10.353-22.567-9.676Z" transform="translate(-847.818 -231.335)" fill="#3f3d56"/>
    <path id="Tracé_446" data-name="Tracé 446" d="M939.349,366.585a.079.079,0,0,0-.011-.038,5.666,5.666,0,0,0-1.226-2.372,5.734,5.734,0,0,0-4.066-1.969c-.065,0-.124-.005-.188-.005a5.846,5.846,0,0,0-1.77.258,5.735,5.735,0,0,0-3.985,4.824l-.333,6.933-1.006,21.024-.134,2.716L925,431.824a7.075,7.075,0,0,0-2.436,5.943,7.148,7.148,0,0,0,13.849,1.866c.016-.043.032-.091.048-.134v-.005a7.109,7.109,0,0,0,.194-3.9,7.537,7.537,0,0,0-.559-1.549,7.211,7.211,0,0,0-.543-.9l2.21-36.465L939.1,374.7l.35-5.782.016-.247a5.607,5.607,0,0,0,.043-.9.147.147,0,0,0,0-.048A5.757,5.757,0,0,0,939.349,366.585Z" transform="translate(-852.724 -194.667)" fill="#ffb6b6"/>
    <path id="Tracé_447" data-name="Tracé 447" d="M932.723,370.7a10.3,10.3,0,0,0-.237-2.2c-.043-.229-.1-.46-.166-.686A10.957,10.957,0,0,0,919.81,360c-6.9,1.253-11.01,3.555-12.23,6.841-.861,2.318-.42,5.421.678,8.7v.005a51.223,51.223,0,0,0,3.593,8c.263.479.527.952.79,1.415a97.31,97.31,0,0,0,5.787,8.939l.064.091,1.146.151,1.447.188,9.557,1.242.6.081.032-.264A179.27,179.27,0,0,0,932.723,370.7Z" transform="translate(-845.598 -193.566)" fill="#ff6584"/>
    <ellipse id="Ellipse_96" data-name="Ellipse 96" cx="85.516" cy="9.143" rx="85.516" ry="9.143" transform="translate(-40.284 412.475)" fill="#3f3d56"/>
    <path id="Tracé_448" data-name="Tracé 448" d="M828.9,731.5h-9.074l-4.317-35H828.9Z" transform="translate(-789.831 -323.15)" fill="#ffb6b6"/>
    <path id="Tracé_449" data-name="Tracé 449" d="M847.174,819.673l-.85-10.17-.715-8.605-3.076-.183-9.719-.581-1.549-.091v6.147L826,809.82l-2.775,1.92-5.6,3.867a3.839,3.839,0,0,0,2.184,7h17.076l2.4-4.964.538-1.119.253,1.345v.005l.9,4.733h6.438Z" transform="translate(-803.468 -397.022)" fill="#002959"/>
    <path id="Tracé_450" data-name="Tracé 450" d="M896.532,720.093l-8.485,3.216-16.441-31.2,12.522-4.746Z" transform="translate(-815.758 -318.927)" fill="#ffb6b6"/>
    <path id="Tracé_451" data-name="Tracé 451" d="M935.3,804.762l-8.584-17.98-2.937.92-9.294,2.9-1.484.462,2.178,5.744-9.412,13.639a3.838,3.838,0,0,0,1.743,5.75,3.752,3.752,0,0,0,2.512.1h.016a1.9,1.9,0,0,0,.247-.081l15.968-6.051.522-5.911.075-.818.522.85,2.711,4.426,6.018-2.28Z" transform="translate(-844.654 -390.893)" fill="#002959"/>
    <path id="Tracé_452" data-name="Tracé 452" d="M968.547,684.251c.336,3.4-1.567,4.783-4.058,5.029s-4.629-.741-4.964-4.138,3.749-8.165,3.749-8.165S968.211,680.854,968.547,684.251Z" transform="translate(-869.806 -340.145)" fill="#6c63ff"/>
    <path id="Tracé_453" data-name="Tracé 453" d="M934.837,603.657c-1.813,2.893-4.166,2.825-6.288,1.495s-3.208-3.418-1.394-6.311,7.961-4.165,7.961-4.165S936.65,600.764,934.837,603.657Z" transform="translate(-854.43 -302.109)" fill="#6c63ff"/>
    <path id="Tracé_454" data-name="Tracé 454" d="M887.843,638.427s39.723,62.54,35.326,65.345-40.026,13.8-43.21,11.6-5.761-74.139-5.761-74.139Z" transform="translate(-830.379 -322.329)" fill="#002959"/>
    <path id="Tracé_455" data-name="Tracé 455" d="M840.7,458.881c5.837.227,29.829,3.7,29.3,4.612a19.168,19.168,0,0,1-1.744,2.274s1.213,5.534.682,6.065,10.385,13.039,4.018,39.874-5.685,45.408-5.685,45.408,2.577,78.687-4.776,80.279-36.311.531-37.676-2.577,4.169-99.609,4.169-99.609.606-48.516,2.047-54.429S837.095,458.8,840.7,458.881Z" transform="translate(-807.459 -239.348)" fill="#002959"/>
    <circle id="Ellipse_97" data-name="Ellipse 97" cx="18.269" cy="18.269" r="18.269" transform="translate(43.174 116.538)" fill="#ffb6b6"/>
    <path id="Tracé_456" data-name="Tracé 456" d="M899.382,346.571c2.577,2.577,13.721,13.19,1.592,31.99s-19.861,32.445-19.861,32.445l-30.171-3.563,4.624-18.345s-2.274-14.479,5.458-21.681,16.222-19.027,16.222-19.027l4.379-.8S896.8,343.993,899.382,346.571Z" transform="translate(-819.631 -187.013)" fill="#ff6584"/>
    <path id="Tracé_457" data-name="Tracé 457" d="M884.546,375.207s-42.6,32.824-45.332,21.3c-1.774-7.489.3-35.635,1.469-47.628l8.613.1s-1.819,26.456,1.819,29.489c0,0,13.182-12.729,15.916-12.543S884.546,375.207,884.546,375.207Z" transform="translate(-813.892 -188.51)" fill="#ffb6b6"/>
    <path id="Tracé_458" data-name="Tracé 458" d="M904.279,356.242s-5.785,26.856-22.842,31.252l-19.9-8.068s25.306-26.975,34.023-27.278S904.279,356.242,904.279,356.242Z" transform="translate(-824.529 -190.014)" fill="#ff6584"/>
    <circle id="Ellipse_98" data-name="Ellipse 98" cx="6.992" cy="6.992" r="6.992" transform="translate(24.639 150.69)" fill="#ffb6b6"/>
    <path id="Tracé_459" data-name="Tracé 459" d="M914.314,283.8a61.48,61.48,0,0,0-1.151-13.486c-1.04-4.386-3.174-8.632-6.629-11.233s-8.365-3.228-11.919-.785a11.218,11.218,0,0,0-11.28-3.794c-4.052.922-7.553,3.826-9.974,7.427a35.764,35.764,0,0,0-4.819,12.182c-.344,1.532-.488,3.488.745,4.347.967.673,2.243.258,3.323-.176l8.911-3.579c3,4.106,7.33,7.852,6.734,13.029s-4.057,10.627-5.888,15.466l7.66-2.765c.818-1.365,2.844-3.512,2.7-5.1a12.894,12.894,0,0,1,1.128,3.729c0,.01,0,.021,0,.032l14.211-5.129a9.961,9.961,0,0,0,4.635-2.726C914.292,289.274,914.345,286.411,914.314,283.8Z" transform="translate(-827.654 -144.761)" fill="#2f2e41"/>
  </g>
</svg>
